<svg version="1.1" id="Calque_1" xmlns="http://www.w3.org/2000/svg" x="0" y="0" width="100" height="70.167" viewBox="0 0 100 70.167" xml:space="preserve"><path fill="#FFF" d="M76.225 29.23c.04-.595.07-1.19.07-1.795 0-14.762-11.968-26.728-26.73-26.728-14.76 0-26.727 11.967-26.727 26.728 0 .604.027 1.2.067 1.794h-.966v39.603h1.763V34.2c2.22 8.515 8.534 15.377 16.715 18.357v16.278h1.764V53.122a26.73 26.73 0 0 0 14.746.007v15.704h1.764v-34.55h.883V52.22a26.78 26.78 0 0 0 15.833-18.002v34.618h1.764V29.23h-.947z"/></svg>