<svg version="1.1" id="Calque_1" xmlns="http://www.w3.org/2000/svg" x="0" y="0" width="124.576" height="137.288" viewBox="0 0 124.576 137.288" xml:space="preserve"><path d="M24.24 47.114c-1.71-.345-3.136-1.23-3.136-3.075 0-2.04 2.115-3.06 4.11-3.06 2.145 0 3.825.974 4.26 3.238H27.63c-.316-1.305-1.456-1.68-2.52-1.68-.84 0-2.086.375-2.086 1.44 0 .84.69 1.26 1.62 1.44l1.335.254c1.904.375 3.72 1.065 3.72 3.255s-2.176 3.315-4.32 3.315c-2.58 0-4.35-1.41-4.576-3.795h1.875c.33 1.484 1.29 2.234 2.79 2.234 1.29 0 2.324-.584 2.324-1.634 0-1.11-1.2-1.484-2.235-1.68l-1.32-.252zM35.97 41.173c2.384 0 4.62.39 4.62 3.42 0 2.745-2.026 3.346-4.59 3.346h-1.71v4.108h-1.906V41.173h3.585zm-1.68 1.53v3.676h1.77c1.44 0 2.55-.21 2.55-1.77 0-1.772-1.306-1.906-2.64-1.906h-1.68zM47.76 52.244c-3.196 0-5.19-2.295-5.19-5.64 0-3.346 1.995-5.625 5.19-5.625s5.19 2.278 5.19 5.624c0 3.345-1.996 5.64-5.19 5.64zm0-1.56c1.8 0 3.224-1.44 3.224-4.08S49.56 42.54 47.76 42.54s-3.226 1.424-3.226 4.064 1.425 4.08 3.225 4.08zM57.6 41.173v6.42c0 1.995.524 3.09 2.55 3.09 1.994 0 2.534-1.154 2.534-3.15v-6.36h1.905v6.286c0 3.434-1.276 4.784-4.44 4.784-3.12 0-4.456-1.215-4.456-4.726v-6.345H57.6zM70.17 42.764h-3.42v-1.59h8.744v1.59h-3.42v9.284H70.17v-9.284zM84.27 52.048l-4.605-8.685v8.685H77.82V41.173h2.55l4.604 8.686v-8.687h1.845v10.875h-2.55zM92.07 52.048h-1.906V41.173h1.905v10.875zM97.318 46.348l4.62-5.175h2.265l-4.034 4.425 4.408 6.45h-2.25l-3.42-5.07-1.59 1.74v3.33h-1.905V41.173h1.905v5.175zM40.544 64.834c-.45 2.43-2.19 3.81-4.695 3.81-3.18 0-5.025-2.265-5.025-5.67 0-3.42 1.965-5.594 5.115-5.594 2.415 0 4.14 1.38 4.575 3.81h-1.83c-.33-1.47-1.395-2.25-2.805-2.25-1.725 0-3.09 1.41-3.09 4.035 0 2.64 1.335 4.11 3.075 4.11 1.47 0 2.52-.766 2.85-2.25h1.83zM45.21 68.45h-1.906V57.573h1.905V68.45zM55.004 68.45L50.4 59.763v8.685h-1.846V57.573h2.55l4.604 8.686v-8.686h1.845V68.45h-2.55zM60.9 57.574h7.694v1.59h-5.79v2.91h5.474v1.575h-5.474v3.194h5.79v1.604H60.9V57.574zm4.47-.72h-1.562l1.575-1.694h2.31l-2.324 1.694zM75.9 68.45l-2.76-8.806v8.805h-1.86V57.573h2.954l2.64 8.67 2.625-8.67h2.954V68.45h-1.86v-8.806l-2.76 8.805H75.9zM88.603 57.574h2.01l4.08 10.875h-2.085l-.854-2.416h-4.41l-.84 2.415h-1.95l4.05-10.876zm-.705 6.87h3.285l-1.65-4.665-1.635 4.664z"/></svg>