<svg version="1.1" id="Calque_1" xmlns="http://www.w3.org/2000/svg" x="0" y="0" width="124.576" height="137.288" viewBox="0 0 124.576 137.288" xml:space="preserve"><path d="M91.01 43.785c.043-.64.074-1.285.074-1.937 0-15.94-12.923-28.863-28.863-28.863S33.36 25.908 33.36 41.848c0 .652.03 1.296.072 1.937h-1.043v42.768h1.905v-37.4c2.398 9.195 9.216 16.605 18.05 19.823v17.578h1.905V69.587a28.854 28.854 0 0 0 15.924.007v16.96h1.906v-37.31h.953V68.61a28.92 28.92 0 0 0 17.097-19.44v37.383h1.905v-42.77H91.01z"/></svg>