<svg version="1.1" id="Calque_1" xmlns="http://www.w3.org/2000/svg" x="0" y="0" width="100" height="100" viewBox="12.288 18.644 100 100" xml:space="preserve"><path d="M88.512 47.872c.04-.594.07-1.19.07-1.794 0-14.762-11.968-26.728-26.73-26.728-14.76 0-26.727 11.967-26.727 26.728 0 .604.027 1.2.067 1.794h-.966v39.604h1.764V52.843c2.22 8.515 8.534 15.377 16.715 18.357v16.278h1.764V71.766c2.345.673 4.82 1.04 7.382 1.04 2.555 0 5.023-.364 7.363-1.033v15.705h1.764v-34.55h.882v17.936c7.752-3.134 13.685-9.802 15.833-18.002V87.48h1.764V47.872h-.948zM26.68 98c-1.584-.32-2.903-1.14-2.903-2.85 0-1.888 1.96-2.833 3.806-2.833 1.986 0 3.542.903 3.945 3H29.82c-.292-1.21-1.347-1.557-2.334-1.557-.778 0-1.93.347-1.93 1.333 0 .778.638 1.167 1.5 1.333l1.235.236c1.765.347 3.446.986 3.446 3.014 0 2.028-2.014 3.07-4 3.07-2.39 0-4.028-1.306-4.237-3.514h1.735c.306 1.374 1.195 2.07 2.584 2.07 1.194 0 2.152-.543 2.152-1.515 0-1.027-1.11-1.374-2.07-1.556L26.68 98zM37.543 92.498c2.21 0 4.278.362 4.278 3.167 0 2.542-1.874 3.098-4.25 3.098h-1.583v3.805h-1.764v-10.07h3.32zm-1.556 1.417v3.403h1.64c1.332 0 2.36-.194 2.36-1.64 0-1.64-1.208-1.763-2.445-1.763h-1.555zM48.46 102.75c-2.958 0-4.804-2.125-4.804-5.223s1.847-5.21 4.805-5.21 4.807 2.11 4.807 5.21c0 3.097-1.848 5.223-4.806 5.223zm0-1.446c1.668 0 2.987-1.333 2.987-3.777 0-2.446-1.32-3.764-2.986-3.764-1.666 0-2.985 1.32-2.985 3.764s1.32 3.777 2.986 3.777zM57.573 92.498v5.945c0 1.847.486 2.86 2.36 2.86 1.848 0 2.348-1.068 2.348-2.915v-5.89h1.765v5.82c0 3.18-1.18 4.43-4.112 4.43-2.89 0-4.125-1.124-4.125-4.375v-5.876h1.765zM69.213 93.97h-3.167V92.5h8.098v1.473h-3.167v8.598h-1.764V93.97zM82.27 102.57l-4.263-8.044v8.043h-1.71V92.497h2.363l4.263 8.043V92.5h1.71v10.07H82.27zM89.493 102.57H87.73V92.497h1.763v10.07zM94.354 97.29l4.278-4.792h2.097l-3.737 4.098 4.083 5.973h-2.084l-3.167-4.695-1.472 1.61v3.084H92.59V92.5h1.763v4.79zM41.78 114.408c-.418 2.25-2.03 3.53-4.35 3.53-2.944 0-4.65-2.1-4.65-5.252 0-3.167 1.82-5.18 4.736-5.18 2.236 0 3.834 1.277 4.237 3.527h-1.695c-.306-1.36-1.292-2.084-2.598-2.084-1.597 0-2.86 1.305-2.86 3.736 0 2.445 1.235 3.805 2.847 3.805 1.36 0 2.334-.707 2.64-2.083h1.692zM46.1 117.756h-1.765v-10.07H46.1v10.07zM55.17 117.756l-4.264-8.043v8.043h-1.71v-10.07h2.362l4.263 8.042v-8.043h1.71v10.07h-2.36zM60.63 107.685h7.125v1.473h-5.362v2.694h5.07v1.458h-5.07v2.96h5.362v1.484H60.63v-10.07zm4.138-.666h-1.446l1.458-1.57h2.14l-2.152 1.57zM74.52 117.756l-2.557-8.154v8.154H70.24v-10.07h2.737l2.445 8.028 2.43-8.03h2.737v10.072h-1.723v-8.154l-2.556 8.154h-1.79zM86.283 107.685h1.86l3.78 10.07H89.99l-.79-2.235h-4.084l-.778 2.236h-1.806l3.75-10.07zm-.653 6.362h3.042l-1.527-4.32-1.515 4.32z"/></svg>